<?xml version="1.0" encoding="iso-8859-1"?>
<!-- Generator: Adobe Illustrator 18.0.0, SVG Export Plug-In . SVG Version: 6.00 Build 0)  -->
<!DOCTYPE svg PUBLIC "-//W3C//DTD SVG 1.1//EN" "http://www.w3.org/Graphics/SVG/1.1/DTD/svg11.dtd">
<svg version="1.1" id="Capa_1" xmlns="http://www.w3.org/2000/svg" xmlns:xlink="http://www.w3.org/1999/xlink" x="0px" y="0px"
	 viewBox="0 0 375.825 375.825" style="enable-background:new 0 0 375.825 375.825;" xml:space="preserve">
<path d="M348.244,29.855C335.17,16.781,317.947,8.353,298.436,5.482c-17.396-2.561-36.27-0.67-54.837,5.452
	C235.96,3.875,226.098,0,215.638,0c-11.018,0-21.375,4.291-29.164,12.081c-7.791,7.79-12.081,18.147-12.081,29.165
	c0,4.79,0.813,9.454,2.37,13.837c-21.345,23.428-34.961,51.649-38.606,80.098l-0.02-0.019l-5.612,45.845
	c-4.212,34.406-19.714,67.16-43.649,92.23l-2.253,2.36l-0.158-0.158c-2.537-2.539-6.653-2.538-9.192,0L3.979,348.732
	c-2.538,2.539-2.538,6.654,0.001,9.192l15.996,15.997c1.22,1.219,2.873,1.904,4.597,1.904s3.377-0.685,4.596-1.904l73.293-73.293
	c1.22-1.219,1.904-2.873,1.904-4.596c0-1.724-0.685-3.377-1.904-4.596l-0.294-0.294c26.748-27.131,62.146-43.976,100.178-47.565
	l28.541-2.693c3.799-0.104,7.658-0.39,11.567-0.876c31.053-3.866,61.687-19.528,86.261-44.101
	c24.576-24.577,40.241-55.214,44.108-86.269C376.767,77.978,368.037,49.643,348.244,29.855z M24.572,360.133l-6.805-6.805
	l64.1-64.101l6.806,6.805L24.572,360.133z M239.23,56.784c-3.381-4.743-5.21-10.399-5.21-16.341c0-5.609,1.627-10.966,4.654-15.539
	c3.379,4.743,5.208,10.4,5.208,16.341C243.882,46.854,242.256,52.211,239.23,56.784z M228.849,16.268
	c-5.08,6.989-7.829,15.369-7.829,24.176c0,9.286,3.059,18.096,8.681,25.301c-4.233,2.439-9.047,3.746-14.063,3.746
	c-4.688,0-9.202-1.136-13.228-3.275c11.724-14.628,12.022-35.447,0.893-50.388c3.796-1.846,7.99-2.826,12.335-2.826
	C220.32,13,224.827,14.134,228.849,16.268z M193.221,24.067c7.148,10.034,6.949,23.722-0.595,33.554
	c-3.396-4.75-5.233-10.42-5.233-16.376C187.393,34.951,189.444,28.975,193.221,24.067z M144.595,188.489
	c4.263,10.093,10.32,19.183,18.076,26.938c7.178,7.18,15.485,12.894,24.662,17.085c-26.992,4.727-52.389,15.674-74.236,31.927
	C129.361,242.054,140.273,215.855,144.595,188.489z M359.923,108.032c-3.512,28.198-17.859,56.142-40.401,78.683
	c-22.537,22.537-50.477,36.882-78.674,40.393c-27.592,3.436-52.093-3.977-68.984-20.873c-16.589-16.585-24.059-40.609-21.031-67.646
	c2.812-25.112,14.33-50.225,32.659-71.506c0.93,1.152,1.92,2.265,2.981,3.327c7.79,7.79,18.147,12.081,29.165,12.081
	c11.017,0,21.374-4.291,29.163-12.081c7.791-7.79,12.081-18.147,12.081-29.164c0-6.854-1.662-13.452-4.793-19.336
	c34.023-9.918,66.08-3.745,86.964,17.139C355.947,55.939,363.36,80.438,359.923,108.032z"/>
<g>
</g>
<g>
</g>
<g>
</g>
<g>
</g>
<g>
</g>
<g>
</g>
<g>
</g>
<g>
</g>
<g>
</g>
<g>
</g>
<g>
</g>
<g>
</g>
<g>
</g>
<g>
</g>
<g>
</g>
</svg>
