<?xml version="1.0" encoding="iso-8859-1"?>
<!-- Generator: Adobe Illustrator 18.0.0, SVG Export Plug-In . SVG Version: 6.00 Build 0)  -->
<!DOCTYPE svg PUBLIC "-//W3C//DTD SVG 1.1//EN" "http://www.w3.org/Graphics/SVG/1.1/DTD/svg11.dtd">
<svg version="1.1" id="Capa_1" xmlns="http://www.w3.org/2000/svg" xmlns:xlink="http://www.w3.org/1999/xlink" x="0px" y="0px"
	 viewBox="0 0 341.903 341.903" style="enable-background:new 0 0 341.903 341.903;" xml:space="preserve">
<g>
	<path d="M271.461,171.689c-7.513-28.086-4.688-57.972,7.955-84.153c6.117-12.667,6.842-26.924,2.04-40.146
		c-4.802-13.223-14.507-23.692-27.328-29.481C227.811,6.025,199.827,0,170.952,0c-28.875,0-56.86,6.025-83.177,17.909
		c-12.82,5.789-22.526,16.259-27.328,29.481c-4.802,13.222-4.078,27.479,2.04,40.146c12.643,26.182,15.468,56.067,7.955,84.153
		l-2.886,10.788c-6.528,14.586-9.837,30.125-9.837,46.196c0,62.435,50.794,113.229,113.229,113.229
		c62.44,0,113.238-50.795,113.238-113.229c0-16.067-3.31-31.604-9.838-46.192L271.461,171.689z M170.948,328.903
		c-55.267,0-100.229-44.963-100.229-100.229c0-14.389,2.995-28.293,8.901-41.324l0.221-0.487l3.16-11.813
		c8.318-31.094,5.19-64.181-8.808-93.165c-4.58-9.483-5.122-20.157-1.527-30.056c3.595-9.898,10.861-17.737,20.459-22.071
		C117.749,18.638,143.934,13,170.952,13c27.018,0,53.202,5.638,77.826,16.757c9.598,4.334,16.864,12.173,20.459,22.071
		c3.595,9.898,3.053,20.572-1.527,30.056c-13.998,28.984-17.125,62.071-8.808,93.165l3.161,11.817l0.221,0.487
		c5.907,13.033,8.902,26.936,8.902,41.32C271.186,283.94,226.219,328.903,170.948,328.903z"/>
	<path d="M220.547,47.946l-7.224-2.439c-14.146-4.785-28.96-7.211-44.032-7.211c-17.122,0-33.8,3.103-49.566,9.22
		c-12.163,4.706-20.022,15.676-20.022,27.945c0,2.199,0.265,4.428,0.79,6.639l15.041,62.602l7.451-4.065
		c14.627-7.981,31.213-12.2,47.964-12.2c16.771,0,33.352,4.218,47.95,12.197l7.453,4.074l14.82-61.673
		C244.74,68.206,235.873,53.121,220.547,47.946z M228.532,79.995l-10.929,45.479c-14.57-6.586-30.538-10.038-46.655-10.038
		c-16.103,0-32.073,3.453-46.664,10.042l-11.148-46.398c-0.288-1.212-0.434-2.43-0.434-3.618c0-6.857,4.598-13.068,11.719-15.824
		c14.266-5.534,29.362-8.341,44.869-8.341c13.652,0,27.066,2.195,39.87,6.526l7.228,2.44
		C225.441,63.319,230.549,71.617,228.532,79.995z"/>
</g>
<g>
</g>
<g>
</g>
<g>
</g>
<g>
</g>
<g>
</g>
<g>
</g>
<g>
</g>
<g>
</g>
<g>
</g>
<g>
</g>
<g>
</g>
<g>
</g>
<g>
</g>
<g>
</g>
<g>
</g>
</svg>
