<?xml version="1.0" encoding="iso-8859-1"?>
<!-- Generator: Adobe Illustrator 18.0.0, SVG Export Plug-In . SVG Version: 6.00 Build 0)  -->
<!DOCTYPE svg PUBLIC "-//W3C//DTD SVG 1.1//EN" "http://www.w3.org/Graphics/SVG/1.1/DTD/svg11.dtd">
<svg version="1.1" id="Capa_1" xmlns="http://www.w3.org/2000/svg" xmlns:xlink="http://www.w3.org/1999/xlink" x="0px" y="0px"
	 viewBox="0 0 442.9 442.9" style="enable-background:new 0 0 442.9 442.9;" xml:space="preserve">
<g>
	<path d="M144.864,394.452h-9.111V73.6c5.995-1.446,10.468-6.841,10.468-13.274V19.224c0-7.536-6.132-13.668-13.668-13.668h-8.359
		c-7.537,0-13.668,6.132-13.668,13.668v41.103c0,6.433,4.473,11.828,10.469,13.274v320.852h-9.111c-3.59,0-6.5,2.91-6.5,6.5
		s2.91,6.5,6.5,6.5h9.111v22.203l7.379,13.245l7.379-13.245v-22.203h9.111c3.59,0,6.5-2.91,6.5-6.5S148.453,394.452,144.864,394.452
		z M123.526,19.224c0-0.368,0.3-0.668,0.668-0.668h8.359c0.369,0,0.668,0.3,0.668,0.668v41.103c0,0.368-0.3,0.668-0.668,0.668
		h-8.359c-0.368,0-0.668-0.3-0.668-0.668V19.224z"/>
	<path d="M265.575,394.43c-13.349-112.878-13.21-227.337,0.411-340.195l1.234-16.417c0.728-9.729-2.662-19.411-9.299-26.563
		C251.285,4.102,241.882,0,232.125,0c-4.253,0-8.439,0.78-12.357,2.252C215.828,0.765,211.68,0,207.389,0
		c-9.76,0-19.165,4.104-25.803,11.259c-6.635,7.152-10.021,16.832-9.29,26.555l1.203,16.126l0.029,0.295
		c13.621,112.886,13.759,227.343,0.41,340.192l-2.103,17.776c-0.788,6.684,2.279,15.024,7.813,21.25
		c4.755,5.35,10.693,8.295,16.719,8.295h46.78c6.027,0,11.965-2.947,16.72-8.298c5.533-6.226,8.599-14.565,7.809-21.247
		L265.575,394.43z M248.393,20.097c4.247,4.576,6.33,10.525,5.864,16.752l-1.195,15.976c-4.76,39.475-7.882,79.144-9.373,118.873
		c-2.965-1.691-6.385-2.671-10.036-2.671h-3.743c-3.376,0-6.556,0.839-9.361,2.302c-1.496-39.605-4.615-79.15-9.36-118.503
		l-1.195-15.976c-0.466-6.227,1.617-12.176,5.864-16.752S225.881,13,232.125,13S244.146,15.521,248.393,20.097z M197.839,206.074
		h10.598c0.051,3.683,0.088,7.365,0.111,11.048h-10.709V206.074z M222.574,206.074h18.413v11.048h-18.413V206.074z M240.988,193.074
		h-18.413v-3.714c0-4.045,3.291-7.335,7.335-7.335h3.743c4.044,0,7.335,3.29,7.335,7.335V193.074z M208.203,193.074h-10.364v-1.842
		c0-5.077,4.13-9.207,9.207-9.207c0.291,0,0.578,0.024,0.863,0.051C208.021,185.742,208.118,189.408,208.203,193.074z
		 M197.839,230.122h10.73c-0.014,4.828-0.045,9.656-0.108,14.484h-10.622V230.122z M222.574,230.122h18.413v14.484h-18.413V230.122z
		 M191.117,20.101c3.628-3.912,8.376-6.315,13.576-6.935c-5.547,6.917-8.329,15.761-7.664,24.652l1.206,16.122l0.029,0.295
		c4.602,38.126,7.658,76.435,9.182,114.803c-0.133-0.002-0.267-0.012-0.4-0.012c-4.086,0-7.916,1.114-11.208,3.048
		c-1.485-39.851-4.611-79.645-9.385-119.247l-1.192-15.983C184.793,30.621,186.873,24.676,191.117,20.101z M189.365,424.816
		c-3.275-3.685-4.92-8.532-4.619-11.088l2.103-17.774c5.432-45.922,8.648-92.108,9.653-138.348h11.731
		c-1.004,45.726-4.187,91.402-9.559,136.823l-2.102,17.773c-0.604,5.108,1.051,11.184,4.335,16.545h-4.539
		C193.316,428.748,190.67,426.284,189.365,424.816z M250.152,424.814c-1.306,1.469-3.952,3.934-7.003,3.934h-22.047
		c-3.052,0-5.698-2.465-7.003-3.934c-3.273-3.684-4.917-8.528-4.615-11.084l2.102-17.773c5.431-45.928,8.646-92.115,9.653-138.351
		h21.775c1.006,46.236,4.221,92.423,9.653,138.351l2.102,17.773C255.069,416.286,253.425,421.131,250.152,424.814z"/>
	<path d="M331.017,394.452h-9.111V73.6c5.995-1.446,10.468-6.841,10.468-13.274V19.224c0-7.536-6.131-13.668-13.668-13.668h-8.359
		c-7.537,0-13.668,6.132-13.668,13.668v41.103c0,6.433,4.473,11.828,10.468,13.274v320.852h-9.111c-3.59,0-6.5,2.91-6.5,6.5
		s2.91,6.5,6.5,6.5h9.111v22.203l7.379,13.245l7.379-13.245v-22.203h9.111c3.59,0,6.5-2.91,6.5-6.5S334.607,394.452,331.017,394.452
		z M309.679,19.224c0-0.368,0.3-0.668,0.668-0.668h8.359c0.368,0,0.668,0.3,0.668,0.668v41.103c0,0.368-0.3,0.668-0.668,0.668
		h-8.359c-0.368,0-0.668-0.3-0.668-0.668V19.224z"/>
</g>
<g>
</g>
<g>
</g>
<g>
</g>
<g>
</g>
<g>
</g>
<g>
</g>
<g>
</g>
<g>
</g>
<g>
</g>
<g>
</g>
<g>
</g>
<g>
</g>
<g>
</g>
<g>
</g>
<g>
</g>
</svg>
