<?xml version="1.0" encoding="iso-8859-1"?>
<!-- Generator: Adobe Illustrator 18.0.0, SVG Export Plug-In . SVG Version: 6.00 Build 0)  -->
<!DOCTYPE svg PUBLIC "-//W3C//DTD SVG 1.1//EN" "http://www.w3.org/Graphics/SVG/1.1/DTD/svg11.dtd">
<svg version="1.1" id="Capa_1" xmlns="http://www.w3.org/2000/svg" xmlns:xlink="http://www.w3.org/1999/xlink" x="0px" y="0px"
	 viewBox="0 0 267.424 267.424" style="enable-background:new 0 0 267.424 267.424;" xml:space="preserve">
<path d="M267.424,197.403c0-41.923-34.103-76.032-76.025-76.041c-34.685-0.007-63.057-27.441-63.057-62.126v-41.78
	c0-3.366-2.728-6.094-6.094-6.094H13.518c-3.366,0-6.094,2.728-6.094,6.094v187.812c0,3.366,2.728,6.094,6.094,6.094h21.67
	l-12.346,31.7H6.5c-3.59,0-6.5,2.91-6.5,6.5v0c0,3.59,2.91,6.5,6.5,6.5h198.424c25.334,0,45.952-19.553,47.402-44.7h9.004
	c3.366,0,6.094-2.728,6.094-6.094V197.403z M115.342,24.362v20H84.924c-3.59,0-6.5,2.91-6.5,6.5s2.91,6.5,6.5,6.5h30.418v0.959
	c0,5.584,0.622,11.023,1.77,16.269l-27.947,4.182c-3.55,0.531-5.998,3.84-5.466,7.391c0.482,3.225,3.255,5.539,6.42,5.539
	c0.32,0,0.645-0.023,0.97-0.072l29.944-4.48c1.926,4.683,4.3,9.135,7.08,13.296l-24.39,9.587c-3.341,1.313-4.985,5.087-3.671,8.428
	c1.006,2.561,3.457,4.124,6.051,4.124c0.791,0,1.595-0.146,2.376-0.452l28.191-11.081c13.84,14.355,33.244,23.313,54.712,23.313
	c25.477,0,47.456,15.2,57.388,37H68.963c-7.267-23.437-25.297-41.968-48.539-49.882V24.362H115.342z M20.424,135.377
	c16.021,6.744,28.59,19.744,34.788,35.985H20.424V135.377z M49.139,211.362h130.05l-12.346,31.7H36.793L49.139,211.362z
	 M204.924,243.062h-24.131l12.346-31.7h46.168C237.889,229.257,223.07,243.062,204.924,243.062z M254.424,198.362h-234v-14H253.06
	c0.889,4.21,1.365,8.57,1.365,13.041V198.362z"/>
<g>
</g>
<g>
</g>
<g>
</g>
<g>
</g>
<g>
</g>
<g>
</g>
<g>
</g>
<g>
</g>
<g>
</g>
<g>
</g>
<g>
</g>
<g>
</g>
<g>
</g>
<g>
</g>
<g>
</g>
</svg>
