<?xml version="1.0" encoding="iso-8859-1"?>
<!-- Generator: Adobe Illustrator 18.0.0, SVG Export Plug-In . SVG Version: 6.00 Build 0)  -->
<!DOCTYPE svg PUBLIC "-//W3C//DTD SVG 1.1//EN" "http://www.w3.org/Graphics/SVG/1.1/DTD/svg11.dtd">
<svg version="1.1" id="Capa_1" xmlns="http://www.w3.org/2000/svg" xmlns:xlink="http://www.w3.org/1999/xlink" x="0px" y="0px"
	 viewBox="0 0 338.084 338.084" style="enable-background:new 0 0 338.084 338.084;" xml:space="preserve">
<path d="M298.062,48.299c-26.989-26.989-66.838-37.564-107.5-28.819c-1.692-3.15-3.855-6.07-6.455-8.67
	C177.135,3.839,167.867,0,158.008,0s-19.127,3.839-26.098,10.81c-11.342,11.342-13.737,28.287-7.202,42.004
	c-2.819,2.446-5.571,4.993-8.208,7.629c-44.658,44.658-56.648,110.475-29.56,158.57l-71.529,71.529
	c-4.61,4.61-7.149,10.739-7.149,17.259s2.539,12.649,7.149,17.259l5.888,5.888c4.758,4.758,11.008,7.137,17.259,7.137
	s12.5-2.379,17.259-7.137l71.523-71.523c16.862,9.483,36.42,14.397,56.804,14.396c7.055,0,14.212-0.588,21.387-1.779
	c29.541-4.903,58.093-19.883,80.397-42.182C339.324,176.453,344.767,95.005,298.062,48.299z M141.102,20.002
	c4.516-4.516,10.52-7.002,16.906-7.002s12.391,2.487,16.906,7.002c9.322,9.322,9.322,24.49,0,33.813
	c-4.516,4.516-10.52,7.002-16.906,7.002s-12.39-2.487-16.906-7.002C131.78,44.493,131.78,29.325,141.102,20.002z M87.281,181.906
	l18.383,18.383l-9.112,9.112C92.106,200.745,89.025,191.494,87.281,181.906z M55.899,312.481L33.878,290.46l80.978-80.979
	l22.021,22.021L55.899,312.481z M30.492,321.755l-5.888-5.888c-2.155-2.155-3.341-5.02-3.341-8.067c0-3.047,1.187-5.912,3.341-8.066
	l0.082-0.082l22.021,22.021l-0.082,0.082C42.176,326.203,34.94,326.203,30.492,321.755z M146.069,240.695l18.347,18.347
	c-9.581-1.736-18.822-4.801-27.462-9.232L146.069,240.695z M276.735,220.667c-26.002,25.997-59.883,39.913-92.2,40.108
	l-98.992-98.993c0.184-32.273,14.093-66.091,40.149-92.147c2.142-2.141,4.368-4.216,6.643-6.223
	c6.921,6.709,16.01,10.405,25.672,10.405c9.859,0,19.127-3.839,26.099-10.81s10.811-16.24,10.811-26.099
	c0-1.685-0.121-3.35-0.341-4.991c35.873-7.32,70.745,2.026,94.293,25.574C330.507,99.129,325.063,172.33,276.735,220.667z"/>
<g>
</g>
<g>
</g>
<g>
</g>
<g>
</g>
<g>
</g>
<g>
</g>
<g>
</g>
<g>
</g>
<g>
</g>
<g>
</g>
<g>
</g>
<g>
</g>
<g>
</g>
<g>
</g>
<g>
</g>
</svg>
