<?xml version="1.0" encoding="iso-8859-1"?>
<!-- Generator: Adobe Illustrator 18.0.0, SVG Export Plug-In . SVG Version: 6.00 Build 0)  -->
<!DOCTYPE svg PUBLIC "-//W3C//DTD SVG 1.1//EN" "http://www.w3.org/Graphics/SVG/1.1/DTD/svg11.dtd">
<svg version="1.1" id="Capa_1" xmlns="http://www.w3.org/2000/svg" xmlns:xlink="http://www.w3.org/1999/xlink" x="0px" y="0px"
	 viewBox="0 0 445.866 445.866" style="enable-background:new 0 0 445.866 445.866;" xml:space="preserve">
<path d="M238.507,9.051C235.278,3.384,229.456,0,222.933,0s-12.344,3.384-15.574,9.051
	c-42.753,75.046-65.352,160.365-65.352,246.733v6.935c0,57.564,12.137,113.305,36.075,165.672
	c4.853,10.616,15.588,17.476,27.351,17.476h35c11.763,0,22.499-6.859,27.351-17.476c23.938-52.367,36.075-108.107,36.075-165.672
	v-6.935C303.859,169.415,281.26,84.097,238.507,9.051z M189.905,422.986c-23.157-50.66-34.898-104.582-34.898-160.268v-6.935
	c0-82.598,21.236-164.202,61.426-236.322v413.404h-11C198.743,432.866,192.649,428.988,189.905,422.986z M290.859,262.719
	c0,55.686-11.741,109.607-34.898,160.268c-2.744,6.002-8.838,9.88-15.528,9.88h-11V19.462
	c40.19,72.12,61.426,153.725,61.426,236.322V262.719z"/>
<g>
</g>
<g>
</g>
<g>
</g>
<g>
</g>
<g>
</g>
<g>
</g>
<g>
</g>
<g>
</g>
<g>
</g>
<g>
</g>
<g>
</g>
<g>
</g>
<g>
</g>
<g>
</g>
<g>
</g>
</svg>
