<?xml version="1.0" encoding="iso-8859-1"?>
<!-- Generator: Adobe Illustrator 18.0.0, SVG Export Plug-In . SVG Version: 6.00 Build 0)  -->
<!DOCTYPE svg PUBLIC "-//W3C//DTD SVG 1.1//EN" "http://www.w3.org/Graphics/SVG/1.1/DTD/svg11.dtd">
<svg version="1.1" id="Capa_1" xmlns="http://www.w3.org/2000/svg" xmlns:xlink="http://www.w3.org/1999/xlink" x="0px" y="0px"
	 viewBox="0 0 349.949 349.949" style="enable-background:new 0 0 349.949 349.949;" xml:space="preserve">
<path d="M345.115,303.396c-3.119-3.119-7.263-4.836-11.67-4.836c-0.003,0-0.007,0-0.011,0c-2.803,0.002-5.498,0.699-7.888,2.007
	l-58.34-58.34l-51.622-63.166l29.889-24.427l0.252-0.207l97.836-97.836c8.499-8.5,8.499-22.328,0-30.828L324.184,6.386
	c-4.117-4.117-9.591-6.385-15.414-6.385s-11.297,2.268-15.414,6.385l-97.836,97.836l-20.548,25.142l-20.548-25.138L56.585,6.385
	c-8.498-8.498-22.325-8.497-30.822,0l-19.38,19.38c-4.115,4.115-6.381,9.588-6.381,15.411c0,5.823,2.266,11.296,6.381,15.412
	l97.84,97.84l30.137,24.631l-51.623,63.166l-58.341,58.341c-2.395-1.308-5.092-2.003-7.897-2.003c-4.407,0-8.55,1.716-11.667,4.833
	C1.716,306.511,0,310.655,0,315.063s1.716,8.551,4.833,11.667l18.385,18.385c3.116,3.116,7.26,4.833,11.667,4.833
	c4.408,0,8.551-1.717,11.667-4.833c3.116-3.117,4.833-7.26,4.833-11.667c0-2.805-0.695-5.502-2.004-7.896l58.341-58.341
	l67.256-54.965l67.245,54.963l58.345,58.344c-1.305,2.396-1.999,5.095-1.999,7.899c0,4.412,1.713,8.555,4.83,11.672
	c3.218,3.21,7.441,4.814,11.664,4.814c4.225,0,8.45-1.607,11.663-4.82l18.39-18.39c3.117-3.117,4.833-7.26,4.833-11.666
	C349.949,310.672,348.236,306.533,345.115,303.396z M302.549,15.578c1.662-1.662,3.871-2.577,6.221-2.577s4.56,0.915,6.221,2.577
	l19.377,19.377c3.43,3.43,3.43,9.012,0,12.443l-14.756,14.756l-31.82-31.82L302.549,15.578z M205.174,112.953l73.427-73.427
	l31.82,31.82l-73.427,73.427L136.48,226.918l-13.451-13.451L205.174,112.953z M15.575,34.958l19.38-19.38
	c3.43-3.428,9.009-3.429,12.438,0l14.758,14.758L30.333,62.154L15.575,47.396C12.146,43.966,12.146,38.387,15.575,34.958z
	 M112.955,144.775L39.526,71.346l31.818-31.818l73.429,73.429l21.806,26.678l-23.993,29.358L112.955,144.775z M99.243,257.35
	l-67.776,67.73l5.893,5.893c0.661,0.661,1.025,1.54,1.025,2.474c0,0.935-0.364,1.814-1.025,2.475c-1.322,1.322-3.627,1.323-4.95,0
	l-18.385-18.385c-0.661-0.661-1.025-1.54-1.025-2.475s0.364-1.814,1.025-2.475c0.661-0.661,1.54-1.025,2.475-1.025
	c0.935,0,1.814,0.364,2.475,1.025l5.893,5.893l67.523-67.523l22.37-27.373l11.602,11.602L99.243,257.35z M205.518,187.286
	l21.397,26.182l-13.447,13.447l-28.219-23.064L205.518,187.286z M335.923,317.535l-18.39,18.39c-1.362,1.362-3.584,1.359-4.948,0
	c-0.884-0.884-1.016-1.929-1.016-2.474c0-0.943,0.365-1.83,0.998-2.466l5.933-5.886l-67.545-67.545l-27.37-22.371l11.598-11.598
	l22.163,27.119l67.733,67.779l5.902-5.902c0.657-0.659,1.532-1.022,2.462-1.023c0,0,0.001,0,0.002,0
	c0.934,0,1.814,0.365,2.465,1.017c0.669,0.673,1.038,1.556,1.038,2.486C336.949,315.995,336.584,316.874,335.923,317.535z"/>
<g>
</g>
<g>
</g>
<g>
</g>
<g>
</g>
<g>
</g>
<g>
</g>
<g>
</g>
<g>
</g>
<g>
</g>
<g>
</g>
<g>
</g>
<g>
</g>
<g>
</g>
<g>
</g>
<g>
</g>
</svg>
