<?xml version="1.0" encoding="iso-8859-1"?>
<!-- Generator: Adobe Illustrator 18.0.0, SVG Export Plug-In . SVG Version: 6.00 Build 0)  -->
<!DOCTYPE svg PUBLIC "-//W3C//DTD SVG 1.1//EN" "http://www.w3.org/Graphics/SVG/1.1/DTD/svg11.dtd">
<svg version="1.1" id="Capa_1" xmlns="http://www.w3.org/2000/svg" xmlns:xlink="http://www.w3.org/1999/xlink" x="0px" y="0px"
	 viewBox="0 0 432.558 432.558" style="enable-background:new 0 0 432.558 432.558;" xml:space="preserve">
<g>
	<path d="M216.279,0c-43.283,0-78.497,35.213-78.497,78.496v275.565c0,43.283,35.213,78.496,78.497,78.496
		s78.496-35.213,78.496-78.496V78.496C294.775,35.213,259.562,0,216.279,0z M281.775,354.062c0,36.114-29.382,65.496-65.496,65.496
		c-36.115,0-65.497-29.382-65.497-65.496V78.496c0-36.114,29.382-65.496,65.497-65.496c36.114,0,65.496,29.382,65.496,65.496
		V354.062z"/>
	<path d="M243.803,114.269v1.35h-10.011v-5.374c0-7.141-5.809-12.949-12.949-12.949h-8.577c-7.14,0-12.949,5.809-12.949,12.949
		v5.374h-10.011v-1.35c0-9.72-7.907-17.627-17.627-17.627c-9.719,0-17.626,7.907-17.626,17.627v15.708
		c0,9.72,7.907,17.627,17.626,17.627c9.72,0,17.627-7.907,17.627-17.627v-1.358h10.011v17.601c0,7.141,5.809,12.949,12.949,12.949
		h8.577c7.141,0,12.949-5.809,12.949-12.949v-17.601h10.011v1.358c0,9.72,7.907,17.627,17.627,17.627s17.627-7.907,17.627-17.627
		v-15.708c0-9.72-7.907-17.627-17.627-17.627S243.803,104.549,243.803,114.269z M176.306,129.977c0,2.552-2.076,4.627-4.627,4.627
		s-4.626-2.075-4.626-4.627v-15.708c0-2.552,2.075-4.627,4.626-4.627s4.627,2.075,4.627,4.627V129.977z M212.266,110.295h8.526
		l0.008,5.323h-8.527L212.266,110.295z M220.846,146.168h-8.529l-0.025-17.55h8.528L220.846,146.168z M266.057,114.269v15.708
		c0,2.552-2.075,4.627-4.627,4.627s-4.627-2.075-4.627-4.627v-15.708c0-2.552,2.075-4.627,4.627-4.627
		S266.057,111.717,266.057,114.269z"/>
	<path d="M260.879,297.021c-9.72,0-17.627,7.907-17.627,17.626v1.358H233.24v-17.601c0-7.141-5.809-12.949-12.948-12.949h-8.578
		c-7.14,0-12.949,5.809-12.949,12.949v17.601h-10.011v-1.358c0-9.719-7.907-17.626-17.627-17.626
		c-9.719,0-17.626,7.907-17.626,17.626v15.709c0,9.719,7.907,17.626,17.626,17.626c9.72,0,17.627-7.907,17.627-17.626v-1.351h10.011
		v5.375c0,7.14,5.809,12.948,12.949,12.948h8.578c7.14,0,12.948-5.809,12.948-12.948v-5.375h10.012v1.351
		c0,9.719,7.907,17.626,17.627,17.626c9.719,0,17.626-7.907,17.626-17.626v-15.709C278.505,304.928,270.597,297.021,260.879,297.021
		z M175.754,330.355c0,2.551-2.076,4.626-4.627,4.626s-4.626-2.075-4.626-4.626v-15.709c0-2.551,2.075-4.626,4.626-4.626
		s4.627,2.075,4.627,4.626V330.355z M211.714,298.404h8.526l0.027,17.601h-8.528L211.714,298.404z M220.295,334.38h-8.529
		l-0.008-5.375h8.529L220.295,334.38z M265.505,330.355c0,2.551-2.075,4.626-4.626,4.626c-2.552,0-4.627-2.075-4.627-4.626v-15.709
		c0-2.551,2.075-4.626,4.627-4.626c2.551,0,4.626,2.075,4.626,4.626V330.355z"/>
</g>
<g>
</g>
<g>
</g>
<g>
</g>
<g>
</g>
<g>
</g>
<g>
</g>
<g>
</g>
<g>
</g>
<g>
</g>
<g>
</g>
<g>
</g>
<g>
</g>
<g>
</g>
<g>
</g>
<g>
</g>
</svg>
