<?xml version="1.0" encoding="iso-8859-1"?>
<!-- Generator: Adobe Illustrator 18.0.0, SVG Export Plug-In . SVG Version: 6.00 Build 0)  -->
<!DOCTYPE svg PUBLIC "-//W3C//DTD SVG 1.1//EN" "http://www.w3.org/Graphics/SVG/1.1/DTD/svg11.dtd">
<svg version="1.1" id="Capa_1" xmlns="http://www.w3.org/2000/svg" xmlns:xlink="http://www.w3.org/1999/xlink" x="0px" y="0px"
	 viewBox="0 0 273.206 273.206" style="enable-background:new 0 0 273.206 273.206;" xml:space="preserve">
<g>
	<path d="M266.603,193.906v-8.401c0-41.967-34.333-75.336-76.3-75.506c-34.642-0.14-62.782-28.366-62.782-63.04V6.094
		c0-3.366-2.728-6.094-6.094-6.094H12.697C9.331,0,6.603,2.728,6.603,6.094v187.812c0,3.366,2.728,6.094,6.094,6.094h24.448v6.845
		c-16.14,3.187-28.154,17.999-26.912,35.32c1.22,17.001,15.402,30.543,32.44,31.028c18.914,0.538,34.472-14.691,34.472-33.486
		c0-6.527-1.883-12.619-5.125-17.775L93.947,200h83.815l21.96,21.991c-3.305,5.283-5.186,11.544-5.082,18.245
		c0.286,18.323,15.654,33.226,33.977,32.967c18.251-0.258,33.018-15.186,33.018-33.497c0-16.248-11.629-29.826-27-32.861V200h25.873
		C263.875,200,266.603,197.272,266.603,193.906z M114.521,13v20H84.103c-3.59,0-6.5,2.91-6.5,6.5s2.91,6.5,6.5,6.5h30.418v0.959
		c0,5.584,0.622,11.023,1.771,16.269l-27.946,4.182c-3.55,0.531-5.998,3.84-5.466,7.391c0.482,3.225,3.255,5.539,6.42,5.539
		c0.32,0,0.645-0.023,0.97-0.072l29.944-4.48c1.926,4.683,4.3,9.135,7.08,13.296l-21.659,8.513
		c-3.341,1.313-4.985,5.087-3.671,8.428c1.006,2.561,3.457,4.124,6.051,4.124c0.791,0,1.595-0.146,2.376-0.452l25.461-10.008
		c3.106,3.222,6.489,6.171,10.117,8.808l-14.054,15.395c-2.42,2.651-2.233,6.763,0.418,9.184c1.247,1.138,2.816,1.699,4.38,1.699
		c1.763,0,3.52-0.713,4.802-2.117l15.81-17.319c3.906,1.906,8.004,3.474,12.248,4.694l-5.758,13.95
		c-1.37,3.318,0.21,7.118,3.528,8.488c0.812,0.334,1.651,0.493,2.478,0.493c2.553,0,4.976-1.516,6.011-4.022l6.725-16.363
		c2.632,0.276,5.302,0.424,8.006,0.424c1.25,0,2.489,0.047,3.722,0.119l-0.158,17.191c-0.033,3.59,2.85,6.526,6.44,6.56
		c0.021,0,0.041,0,0.061,0c3.562,0,6.465-2.871,6.498-6.44l0.139-15.167c20.003,5.504,36.048,20.632,42.83,40.077H99.977
		c-10.535-30.856-39.743-52-72.701-52h-7.673V13H114.521z M19.603,126.34h7.676c28.843,0,54.101,19.346,61.614,47.193l0.081,0.3
		c0.717,2.659,3.129,4.507,5.884,4.507h158.258c0.309,2.526,0.487,5.093,0.487,7.701V187h-234V126.34z M43.646,260.206
		c-11.304,0-20.5-9.196-20.5-20.5s9.196-20.5,20.5-20.5s20.5,9.196,20.5,20.5S54.949,260.206,43.646,260.206z M63.104,212.462
		c-3.806-2.726-8.201-4.678-12.958-5.617V200h25.42L63.104,212.462z M248.636,239.706c0,11.304-9.196,20.5-20.5,20.5
		s-20.5-9.196-20.5-20.5s9.196-20.5,20.5-20.5S248.636,228.402,248.636,239.706z M221.636,206.845
		c-4.782,0.944-9.198,2.911-13.018,5.66L196.113,200h25.523V206.845z"/>
	<circle cx="43.646" cy="239.706" r="10.125"/>
	<circle cx="228.136" cy="239.706" r="10.125"/>
</g>
<g>
</g>
<g>
</g>
<g>
</g>
<g>
</g>
<g>
</g>
<g>
</g>
<g>
</g>
<g>
</g>
<g>
</g>
<g>
</g>
<g>
</g>
<g>
</g>
<g>
</g>
<g>
</g>
<g>
</g>
</svg>
